<svg xmlns="http://www.w3.org/2000/svg" data-name="Layer 1" viewBox="0 0 64 64"><path d="M27 22c0 2.4 1.95 7 5 7s5-4.6 5-7a5 5 0 0 0-10 0zm8 0c0 2-1.61 5-3 5s-3-3-3-5a3 3 0 0 1 6 0zm-24-8c0 2.4 1.95 7 5 7s5-4.6 5-7a5 5 0 0 0-10 0zm8 0c0 2-1.61 5-3 5s-3-3-3-5a3 3 0 0 1 6 0zm24 0c0 2.4 1.95 7 5 7s5-4.6 5-7a5 5 0 0 0-10 0zm8 0c0 2-1.61 5-3 5s-3-3-3-5a3 3 0 0 1 6 0z"/><path d="M51.75 23a1 1 0 0 0-.85.47L48 28.11l-2.9-4.64a1 1 0 0 0-.85-.47A8.25 8.25 0 0 0 36 31h-.26a1 1 0 0 0-.85.47L32 36.11l-2.9-4.64a1 1 0 0 0-.85-.47H28a8.22 8.22 0 0 0-8.24-8 1 1 0 0 0-.85.47L16 28.11l-2.9-4.64a1 1 0 0 0-.85-.47A8.26 8.26 0 0 0 4 31.25V38a1 1 0 0 0 .41.81l11 8a1 1 0 0 0 1.18 0L20 44.33V46a1 1 0 0 0 .41.81l11 8a1 1 0 0 0 1.18 0l11-8A1 1 0 0 0 44 46v-1.67l3.41 2.48a1 1 0 0 0 1.18 0l11-8A1 1 0 0 0 60 38v-6.75A8.24 8.24 0 0 0 51.75 23ZM16 44.76 6 37.49v-6.24A6.26 6.26 0 0 1 11.71 25l3.44 5.51a1 1 0 0 0 1.7 0L20.29 25A6.24 6.24 0 0 1 26 31.25v.07a8.26 8.26 0 0 0-6 7.93v2.6Zm26 .73-10 7.27-10-7.27v-6.24A6.26 6.26 0 0 1 27.71 33l3.44 5.51a1 1 0 0 0 1.7 0L36.29 33A6.26 6.26 0 0 1 42 39.25Zm16-8-10 7.27-4-2.91v-2.6a8.26 8.26 0 0 0-6-7.93v-.07A6.26 6.26 0 0 1 43.71 25l3.44 5.51a1 1 0 0 0 1.7 0L52.29 25A6.24 6.24 0 0 1 58 31.25Z"/></svg>