<svg xmlns="http://www.w3.org/2000/svg" viewBox="0 0 64 64"><path fill="#222" d="M16.14 10.11h-3V8.16a1.5 1.5 0 0 1 3 0Zm11.57-1.95a1.5 1.5 0 0 0-3 0v1.95h3Zm11.58 0a1.5 1.5 0 0 0-3 0v1.95h3Zm11.57 0a1.5 1.5 0 1 0-3 0v1.95h3Zm5.66 1.95h-5.66v2a1.5 1.5 0 0 1-3 0v-2h-8.57v2a1.5 1.5 0 0 1-3 0v-2h-8.58v2a1.5 1.5 0 0 1-3 0v-2h-8.57v2a1.5 1.5 0 0 1-3 0v-2H7.48a1 1 0 0 0-1 1v4.77a1 1 0 0 0 1 1h49a1 1 0 0 0 1-1v-4.77a1 1 0 0 0-.96-1Zm-48 9.77h47V53a1 1 0 0 1-1 1h-45a1 1 0 0 1-1-1Zm32.58 8a1.5 1.5 0 0 0 1.5 1.5h7.08a1.5 1.5 0 0 0 0-3h-7.12a1.5 1.5 0 0 0-1.5 1.53Zm0 9.05a1.5 1.5 0 0 0 1.5 1.5h7.08a1.5 1.5 0 0 0 0-3h-7.12a1.5 1.5 0 0 0-1.5 1.57Zm0 9a1.5 1.5 0 0 0 1.5 1.5h7.08a1.5 1.5 0 0 0 0-3h-7.12a1.5 1.5 0 0 0-1.5 1.57ZM27 27.91a1.5 1.5 0 0 0 1.5 1.5h7.08a1.5 1.5 0 0 0 0-3h-7.12a1.5 1.5 0 0 0-1.46 1.5ZM27 37a1.5 1.5 0 0 0 1.5 1.5h7.08a1.5 1.5 0 0 0 0-3h-7.12A1.5 1.5 0 0 0 27 37Zm0 9a1.5 1.5 0 0 0 1.5 1.5h7.08a1.5 1.5 0 0 0 0-3h-7.12A1.5 1.5 0 0 0 27 46ZM12.86 27.91a1.5 1.5 0 0 0 1.5 1.5h7.08a1.5 1.5 0 0 0 0-3h-7.08a1.5 1.5 0 0 0-1.5 1.5Zm0 9.05a1.5 1.5 0 0 0 1.5 1.5h7.08a1.5 1.5 0 1 0 0-3h-7.08a1.5 1.5 0 0 0-1.5 1.54Zm0 9a1.5 1.5 0 0 0 1.5 1.5h7.08a1.5 1.5 0 0 0 0-3h-7.08a1.5 1.5 0 0 0-1.5 1.54Z"/></svg>