<svg xmlns="http://www.w3.org/2000/svg" viewBox="0 0 64 64"><path fill="#222" d="M30 52.109a15.741 15.741 0 1 1 15.741-15.741A15.758 15.758 0 0 1 30 52.109Zm0-29.482a13.741 13.741 0 1 0 13.741 13.741A13.756 13.756 0 0 0 30 22.627Z"/><path fill="#222" d="M30 48.109a11.741 11.741 0 1 1 11.741-11.741A11.754 11.754 0 0 1 30 48.109Zm0-21.482a9.741 9.741 0 1 0 9.741 9.741A9.752 9.752 0 0 0 30 26.627Z"/><path fill="#222" d="M37.741 37.368a1 1 0 0 1-1-1 6.692 6.692 0 0 0-.036-.7 1 1 0 0 1 1.99-.207 8.727 8.727 0 0 1 .046.9 1 1 0 0 1-1 1.007zm-.855-3.538a1 1 0 0 1-.89-.541 6.79 6.79 0 0 0-4.122-3.4 1 1 0 1 1 .557-1.921 8.8 8.8 0 0 1 5.342 4.4 1 1 0 0 1-.887 1.459zM19.91 48.11H4.98a1 1 0 0 1 0-2h14.93a1 1 0 0 1 0 2zm39.11 0H40.09a1 1 0 0 1 0-2h18.93a1 1 0 0 1 0 2zm-38.53-22H4.98a1 1 0 0 1 0-2h15.51a1 1 0 0 1 0 2zm38.53 0H39.51a1 1 0 0 1 0-2h19.51a1 1 0 0 1 0 2z"/><path fill="#222" d="M55.02 53.48H8.98a5.006 5.006 0 0 1-5-5V19.94a5.006 5.006 0 0 1 5-5h11.459l3.12-4.032a1 1 0 0 1 .791-.388h11.3a1 1 0 0 1 .791.388l3.12 4.032H55.02a5.006 5.006 0 0 1 5 5v28.54a5.006 5.006 0 0 1-5 5ZM8.98 16.94a3 3 0 0 0-3 3v28.54a3 3 0 0 0 3 3h46.04a3 3 0 0 0 3-3V19.94a3 3 0 0 0-3-3H39.07a1 1 0 0 1-.791-.388L35.16 12.52H24.84l-3.119 4.032a1 1 0 0 1-.791.388Z"/><path fill="#222" d="M32.151 15.938h-4.3a1 1 0 0 1 0-2h4.3a1 1 0 0 1 0 2zm22.533 5.715H47.7a1 1 0 0 1 0-2h6.98a1 1 0 0 1 0 2zM17.62 16.94a1 1 0 0 1-1-1v-1.687h-4.258v1.687a1 1 0 1 1-2 0v-2.687a1 1 0 0 1 1-1h6.258a1 1 0 0 1 1 1v2.687a1 1 0 0 1-1 1zm32 0a1 1 0 0 1-1-1v-1.687h-4.258v1.687a1 1 0 0 1-2 0v-2.687a1 1 0 0 1 1-1h6.258a1 1 0 0 1 1 1v2.687a1 1 0 0 1-1 1z"/></svg>