<svg xmlns="http://www.w3.org/2000/svg" data-name="Layer 1" viewBox="0 0 128 128"><path d="M60 60h8a4 4 0 0 0 4-4v-8a4 4 0 0 0-4-4h-8a4 4 0 0 0-4 4v8a4 4 0 0 0 4 4zm0-12h8v8h-8zm20 12h8a4 4 0 0 0 4-4v-8a4 4 0 0 0-4-4h-8a4 4 0 0 0-4 4v8a4 4 0 0 0 4 4zm0-12h8v8h-8zm20 12h8a4 4 0 0 0 4-4v-8a4 4 0 0 0-4-4h-8a4 4 0 0 0-4 4v8a4 4 0 0 0 4 4zm0-12h8v8h-8zM20 80h8a4 4 0 0 0 4-4v-8a4 4 0 0 0-4-4h-8a4 4 0 0 0-4 4v8a4 4 0 0 0 4 4zm0-12h8v8h-8zm20 12h8a4 4 0 0 0 4-4v-8a4 4 0 0 0-4-4h-8a4 4 0 0 0-4 4v8a4 4 0 0 0 4 4zm0-12h8v8h-8zm20 12h8a4 4 0 0 0 4-4v-8a4 4 0 0 0-4-4h-8a4 4 0 0 0-4 4v8a4 4 0 0 0 4 4zm0-12h8v8h-8zm20 12h8a4 4 0 0 0 4-4v-8a4 4 0 0 0-4-4h-8a4 4 0 0 0-4 4v8a4 4 0 0 0 4 4zm0-12h8v8h-8zm20 12h8a4 4 0 0 0 4-4v-8a4 4 0 0 0-4-4h-8a4 4 0 0 0-4 4v8a4 4 0 0 0 4 4zm0-12h8v8h-8zm-80 32h8a4 4 0 0 0 4-4v-8a4 4 0 0 0-4-4h-8a4 4 0 0 0-4 4v8a4 4 0 0 0 4 4zm0-12h8v8h-8zm20 12h8a4 4 0 0 0 4-4v-8a4 4 0 0 0-4-4h-8a4 4 0 0 0-4 4v8a4 4 0 0 0 4 4zm0-12h8v8h-8zm20 12h8a4 4 0 0 0 4-4v-8a4 4 0 0 0-4-4h-8a4 4 0 0 0-4 4v8a4 4 0 0 0 4 4zm0-12h8v8h-8zm20 12h8a4 4 0 0 0 4-4v-8a4 4 0 0 0-4-4h-8a4 4 0 0 0-4 4v8a4 4 0 0 0 4 4zm0-12h8v8h-8zm20 12h8a4 4 0 0 0 4-4v-8a4 4 0 0 0-4-4h-8a4 4 0 0 0-4 4v8a4 4 0 0 0 4 4zm0-12h8v8h-8zm-80 32h8a4 4 0 0 0 4-4v-8a4 4 0 0 0-4-4h-8a4 4 0 0 0-4 4v8a4 4 0 0 0 4 4zm0-12h8v8h-8zm20 12h8a4 4 0 0 0 4-4v-8a4 4 0 0 0-4-4h-8a4 4 0 0 0-4 4v8a4 4 0 0 0 4 4zm0-12h8v8h-8zm20 12h8a4 4 0 0 0 4-4v-8a4 4 0 0 0-4-4h-8a4 4 0 0 0-4 4v8a4 4 0 0 0 4 4zm0-12h8v8h-8zm20 12h8a4 4 0 0 0 4-4v-8a4 4 0 0 0-4-4h-8a4 4 0 0 0-4 4v8a4 4 0 0 0 4 4zm0-12h8v8h-8z"/><path d="M120 7h-9V2a2 2 0 0 0-4 0v16a3 3 0 0 1-6 0V2a2 2 0 0 0-4 0v5H71V2a2 2 0 0 0-4 0v16a3 3 0 0 1-6 0V2a2 2 0 0 0-4 0v5H31V2a2 2 0 0 0-4 0v16a3 3 0 0 1-6 0V2a2 2 0 0 0-4 0v5H8a8 8 0 0 0-8 8v105a8.024 8.024 0 0 0 8 8h112a8 8 0 0 0 8-8V15a8 8 0 0 0-8-8ZM98.04 21.653a6.98 6.98 0 0 0 11.92 0c.015.17.04.339.04.514a6 6 0 1 1-12 0c0-.175.025-.343.04-.514Zm-40 0a6.98 6.98 0 0 0 11.92 0c.015.17.04.339.04.514a6 6 0 1 1-12 0c0-.175.025-.343.04-.514Zm-40 0a6.98 6.98 0 0 0 11.92 0c.015.17.04.339.04.514a6 6 0 1 1-12 0c0-.175.025-.343.04-.514ZM124 120a4.005 4.005 0 0 1-4 4H8a4.005 4.005 0 0 1-4-4V40h120Zm0-84H4V15a4.005 4.005 0 0 1 4-4h9v4.047a10 10 0 1 0 14 0V11h26v4.047a10 10 0 1 0 14 0V11h26v4.047a10 10 0 1 0 14 0V11h9a4.005 4.005 0 0 1 4 4Z"/></svg>