<svg version="1.1" id="Layer_1" xmlns="http://www.w3.org/2000/svg" xmlns:xlink="http://www.w3.org/1999/xlink" x="0px" y="0px"
	 width="100%" viewBox="0 0 512 512" enable-background="new 0 0 512 512" xml:space="preserve">
<path fill="#000000" opacity="1.000000" stroke="none" 
	d="
M513.000000,222.545898 
	C507.006897,234.837418 502.741699,247.413818 497.385620,259.523956 
	C496.312927,261.949310 495.379730,264.436371 494.305542,266.860992 
	C491.629608,272.901337 486.621918,275.456696 480.179108,273.956329 
	C470.341400,271.665283 460.503601,269.366425 450.716553,266.871826 
	C448.119843,266.209900 446.252563,266.666504 444.432495,268.531799 
	C439.895538,273.181610 435.301331,277.776886 430.665009,282.327759 
	C428.699860,284.256653 428.137482,286.180817 428.883026,289.024109 
	C431.361450,298.475952 433.482635,308.021637 435.727020,317.534576 
	C437.514648,325.111694 435.207489,329.555603 428.027802,332.534332 
	C413.938232,338.379700 399.883423,344.309845 385.763489,350.080750 
	C377.969849,353.266052 373.437500,351.886780 368.784332,344.723877 
	C363.817871,337.078735 358.975281,329.336884 354.474854,321.412201 
	C352.312286,317.604126 349.780548,315.915710 345.340912,316.258087 
	C340.372559,316.641205 335.335846,316.600128 330.359436,316.275330 
	C326.143890,316.000214 323.757965,317.615601 321.669403,321.256805 
	C316.885742,329.596497 311.705475,337.715912 306.490112,345.798218 
	C302.906067,351.352386 297.817322,353.120178 291.822662,350.714813 
	C276.745789,344.665131 261.728607,338.462494 246.759445,332.150513 
	C240.931503,329.693085 238.570038,324.241486 240.099304,317.706787 
	C242.328720,308.180389 244.484344,298.632050 246.995972,289.179291 
	C247.742920,286.368042 247.374344,284.429077 245.371155,282.467590 
	C240.729416,277.922607 236.144577,273.317657 231.614426,268.661377 
	C229.678467,266.671539 227.741623,266.158478 224.917267,266.900299 
	C215.468582,269.381958 205.925232,271.501892 196.425278,273.790009 
	C189.248566,275.518585 184.369736,273.115204 181.620377,266.478394 
	C175.718750,252.232162 169.781860,238.000519 163.899185,223.746490 
	C160.827042,216.302551 162.121292,211.425308 168.828613,207.036850 
	C176.878601,201.769867 185.087830,196.736389 193.360596,191.824921 
	C196.415970,190.010956 197.889145,187.893692 197.718201,184.228973 
	C197.454590,178.577133 197.456329,172.895081 197.718262,167.243103 
	C197.881973,163.710663 196.315872,161.865021 193.453903,160.162872 
	C185.042267,155.160065 176.730621,149.981415 168.498749,144.686722 
	C162.497162,140.826523 160.907013,135.876175 163.579285,129.209320 
	C169.564514,114.277267 175.648773,99.383484 181.860291,84.544266 
	C184.312592,78.685753 189.555237,76.575050 196.371185,78.188744 
	C205.714737,80.400864 215.106369,82.434418 224.374039,84.928551 
	C227.391830,85.740692 229.472412,85.283752 231.548492,83.193565 
	C236.243454,78.466675 240.964783,73.764565 245.750916,69.130386 
	C247.519119,67.418320 247.834671,65.627129 247.236435,63.271023 
	C244.831863,53.800858 242.599548,44.287083 240.278595,34.795528 
	C238.371613,26.996960 240.626587,22.589926 248.020096,19.430384 
	C261.891052,13.502775 275.734741,7.511323 289.794861,1.273211 
	C293.692902,1.000000 297.385834,1.000000 301.760071,1.252913 
	C309.325348,7.578095 313.588409,15.781166 317.317688,23.647995 
	C322.318146,34.196304 329.404419,36.078228 340.075226,36.069077 
	C349.248901,36.061211 353.581421,32.531361 357.685394,25.210276 
	C362.425201,16.754938 366.615051,7.745031 374.000000,1.000000 
	C377.361298,1.000000 380.722565,1.000000 384.801025,1.225376 
	C399.713074,7.467681 413.881866,13.547278 428.113892,19.474945 
	C435.177368,22.416893 437.566193,26.866453 435.760620,34.446316 
	C433.495605,43.954830 431.356720,53.495506 428.919220,62.959408 
	C428.257385,65.528931 428.457916,67.356796 430.397552,69.230667 
	C435.190674,73.861259 439.878387,78.603210 444.532379,83.374641 
	C446.484619,85.376129 448.427216,85.791702 451.244110,85.042786 
	C460.848236,82.489410 470.539185,80.256729 480.218994,77.995964 
	C486.183472,76.602928 491.851929,79.097794 494.016357,84.192360 
	C497.582306,92.585648 500.758270,101.149010 504.477631,109.471298 
	C507.376373,115.957306 509.328766,122.856247 513.000000,129.000000 
	C513.000000,132.361282 513.000000,135.722580 512.748108,139.765411 
	C511.114349,142.117950 509.573608,143.550797 507.679077,144.700226 
	C499.329926,149.765640 491.108612,155.043716 482.715302,160.033386 
	C479.698395,161.826843 478.103210,163.878738 478.271515,167.573196 
	C478.536133,173.381088 478.480042,179.214157 478.289612,185.027710 
	C478.197266,187.846039 479.061768,189.735626 481.505096,191.162033 
	C486.795471,194.250488 492.160156,197.254379 497.193085,200.729370 
	C502.676453,204.515320 509.806885,206.254303 513.000000,213.000000 
	C513.000000,216.030594 513.000000,219.061188 513.000000,222.545898 
M481.488464,240.191833 
	C483.435822,235.609756 485.107208,230.882431 487.418060,226.491653 
	C489.259247,222.993347 488.346893,221.086365 485.243530,219.219635 
	C477.707611,214.686630 470.268158,209.992508 462.812744,205.326706 
	C458.539276,202.652267 456.462585,198.976196 456.576630,193.702408 
	C456.828705,182.045471 456.888092,170.373169 456.566589,158.719803 
	C456.409576,153.028900 458.577332,149.255508 463.261932,146.378769 
	C470.898224,141.689453 478.404968,136.789658 485.999512,132.031494 
	C487.661377,130.990311 489.218262,129.915695 488.296265,127.704781 
	C484.670288,119.009903 480.955872,110.351929 477.194855,101.493164 
	C466.731171,103.869026 456.553528,106.028740 446.462646,108.537315 
	C441.686401,109.724686 438.146332,108.280739 434.875519,104.960869 
	C427.041779,97.009628 419.408234,88.824898 411.128540,81.361580 
	C405.275238,76.085403 404.155823,70.619339 406.190582,63.225697 
	C408.585602,54.523048 411.054688,45.755978 412.217255,36.597305 
	C404.412903,33.371643 396.699890,30.707085 389.507477,27.025511 
	C384.777802,24.604540 382.668579,26.183777 380.403290,29.994333 
	C376.251495,36.978321 371.841888,43.808495 367.592896,50.735401 
	C364.746979,55.374870 360.936066,57.612949 355.231934,57.449230 
	C343.745605,57.119553 332.237335,57.126835 320.750092,57.437271 
	C315.071960,57.590717 311.250366,55.410969 308.376801,50.752316 
	C303.675629,43.130672 298.772919,35.632629 294.121765,27.981203 
	C292.596130,25.471401 291.067871,25.033794 288.396149,26.233921 
	C281.438995,29.359020 274.447510,32.448906 267.296051,35.080952 
	C264.202606,36.219475 263.567719,37.666138 264.311798,40.586678 
	C266.274780,48.291409 267.921967,56.079212 270.001007,63.750980 
	C271.856049,70.596169 270.816681,76.026291 265.196320,81.091148 
	C256.668549,88.776085 248.789154,97.186607 240.733353,105.386208 
	C237.674316,108.499855 234.246246,109.685043 229.981277,108.679764 
	C220.960358,106.553490 211.929947,104.465828 202.885834,102.440971 
	C200.883118,101.992592 198.675858,101.007866 197.491043,104.050278 
	C194.542740,111.621025 191.510086,119.160889 188.371506,126.654602 
	C187.139282,129.596664 188.141342,131.044678 190.743927,132.588989 
	C198.304977,137.075500 205.652237,141.920639 213.130051,146.549698 
	C217.463776,149.232452 219.532654,152.832474 219.422607,158.108856 
	C219.179428,169.766113 219.115326,181.438538 219.447281,193.091415 
	C219.608948,198.766693 217.512680,202.641022 212.845749,205.502701 
	C205.775696,209.837997 198.846603,214.412674 191.669403,218.559875 
	C187.903061,220.736191 187.221451,223.147537 188.976562,227.012115 
	C191.719604,233.052063 194.491669,239.132233 196.501541,245.434509 
	C198.049210,250.287384 200.664337,250.289841 204.711334,249.243637 
	C213.208481,247.047012 221.796509,245.200409 230.353729,243.238373 
	C234.201950,242.356033 237.571503,243.378845 240.342102,246.134888 
	C249.553009,255.297516 258.731598,264.492676 267.902649,273.695221 
	C270.683594,276.485748 271.597778,279.818787 270.691223,283.684906 
	C268.575378,292.708038 266.433258,301.726349 264.475494,310.784180 
	C264.067932,312.669739 262.730835,315.125397 265.783966,316.354736 
	C273.474884,319.451599 281.170715,322.536346 288.849762,325.662384 
	C291.184784,326.612915 292.746246,326.292480 294.138733,323.861328 
	C297.353119,318.249420 301.192169,312.982574 304.220581,307.279816 
	C308.788208,298.678711 314.460907,293.320435 325.363892,294.431824 
	C335.422455,295.457123 345.671997,294.834290 355.828491,294.581238 
	C361.107269,294.449707 364.762299,296.592255 367.421906,300.863464 
	C371.891785,308.041901 376.453796,315.169006 380.692322,322.482727 
	C382.729187,325.997406 384.912872,326.929871 388.700562,325.194366 
	C395.183716,322.223785 401.719940,319.284393 408.457062,316.986298 
	C412.165802,315.721222 412.376160,313.831940 411.627350,310.726562 
	C409.416779,301.559021 407.280243,292.372986 405.202026,283.174469 
	C404.424042,279.730927 405.260315,276.648987 407.825256,274.094543 
	C417.268433,264.689880 426.677338,255.250656 436.141632,245.867310 
	C438.794647,243.237045 441.966919,242.380676 445.693085,243.278458 
	C452.935028,245.023331 460.226746,246.561111 467.472351,248.291443 
	C477.544861,250.696869 477.534821,250.738876 481.488464,240.191833 
z"/>
<path fill="#000000" opacity="1.000000" stroke="none" 
	d="
M1.000000,363.468658 
	C7.125703,357.861511 14.823720,357.896606 22.107386,356.732452 
	C31.542257,355.224396 34.773018,352.165375 36.405144,342.958527 
	C36.834400,340.537109 35.345280,339.159271 34.276588,337.620911 
	C31.250778,333.265381 27.970041,329.087677 24.823687,324.814911 
	C20.510162,318.957123 20.961353,312.979858 26.114502,307.815155 
	C33.409729,300.503540 40.706425,293.193176 48.045132,285.925323 
	C53.292953,280.728180 58.439846,280.176025 64.572136,284.256195 
	C68.713562,287.011719 72.840599,289.822083 76.726593,292.918518 
	C80.290466,295.758270 83.302910,295.912506 87.874802,294.367706 
	C94.142555,292.249817 96.387840,288.721863 96.769135,282.663696 
	C97.048752,278.221008 98.014008,273.815948 98.766045,269.409851 
	C99.798157,263.362885 104.227654,259.713135 110.748947,259.671753 
	C121.744148,259.601990 132.740250,259.615234 143.735672,259.663208 
	C150.108932,259.691010 154.096375,262.953705 155.234802,269.144257 
	C156.371475,275.325256 157.481506,281.520477 158.268250,287.751740 
	C158.567261,290.120148 159.710999,291.318420 161.597443,292.247833 
	C168.232925,295.516907 174.504257,297.777283 180.569687,290.626495 
	C183.163345,287.568726 187.202652,285.707092 190.665894,283.424591 
	C195.068848,280.522766 200.680817,280.741455 204.448578,284.389832 
	C212.944046,292.616119 221.291626,300.998596 229.567429,309.446716 
	C233.335297,313.293030 233.404419,317.917816 230.680725,322.277832 
	C227.258469,327.756134 223.547012,333.073944 219.652267,338.228241 
	C217.764572,340.726379 218.237122,342.832764 218.798584,345.590912 
	C221.203232,357.403625 231.084595,356.003082 239.285553,357.634766 
	C241.556076,358.086517 243.903503,358.233612 246.119705,358.859924 
	C251.294739,360.322449 254.267349,364.091797 254.311234,369.412201 
	C254.404678,380.740234 254.417618,392.070343 254.308731,403.398102 
	C254.247757,409.741821 251.449188,413.149231 245.103897,414.493408 
	C239.610641,415.657043 234.057129,416.657745 228.479416,417.258453 
	C224.766968,417.658325 222.995392,419.363281 221.017181,422.543884 
	C216.582809,429.673584 218.873322,435.065247 223.654709,440.575775 
	C226.036682,443.320953 228.158127,446.332825 230.096786,449.413269 
	C233.725296,455.178772 233.340332,460.434357 228.663269,465.290802 
	C220.921982,473.329041 213.036407,481.233673 205.041122,489.019562 
	C201.020172,492.935150 194.680573,492.765045 189.037476,488.865631 
	C184.944916,486.037628 180.971527,483.034119 176.992218,480.046021 
	C170.691193,475.314453 159.455200,479.732574 158.276917,487.413971 
	C157.524704,492.317535 156.701721,497.210297 155.907837,502.107452 
	C155.286057,505.942810 153.931885,509.445984 151.124481,512.671875 
	C135.979111,513.000000 120.958214,513.000000 105.239494,512.748840 
	C101.193268,509.943573 99.403816,506.444855 98.747925,502.395782 
	C97.929184,497.341339 97.373535,492.244812 96.598946,487.182587 
	C95.531502,480.206451 83.915993,475.606201 78.233902,479.839722 
	C74.248146,482.809387 70.248825,485.762665 66.202156,488.648376 
	C58.832153,493.903931 54.132912,493.411102 47.812038,486.993622 
	C40.455154,479.524323 32.997284,472.154602 25.625280,464.700073 
	C21.436180,460.464111 20.852545,454.521423 24.176847,449.783386 
	C27.698418,444.764191 31.309507,439.807251 34.927166,434.856537 
	C35.617474,433.911804 36.401917,433.072845 36.539776,431.835358 
	C37.224564,425.688141 30.632963,418.183594 24.576622,417.272247 
	C16.402340,416.042175 7.531367,416.685425 1.000000,410.000000 
	C1.000000,394.645782 1.000000,379.291534 1.000000,363.468658 
M77.379807,319.590027 
	C73.787422,318.862976 71.378067,316.158173 68.536026,314.211761 
	C57.011261,306.318848 57.035320,306.282806 48.156162,317.163025 
	C48.056599,317.285034 48.036011,317.471527 47.889786,317.869537 
	C50.064518,322.171234 52.999981,326.185242 56.185776,329.963470 
	C61.067944,335.753479 61.463051,341.785767 58.257637,348.463654 
	C56.322353,352.495422 54.487000,356.628998 53.163990,360.889832 
	C50.197906,370.442383 45.092857,377.148865 34.041409,376.939880 
	C33.723804,376.933868 33.407909,377.140106 33.082497,377.200043 
	C21.868147,379.265137 21.965645,379.261536 22.288950,390.606476 
	C22.376997,393.696075 23.507099,395.196747 26.516354,395.603180 
	C31.104851,396.222961 35.674931,396.980591 40.250084,397.697205 
	C45.074574,398.452911 48.415947,401.037750 50.271168,405.619904 
	C52.699104,411.616577 55.028248,417.668427 57.797283,423.508118 
	C61.510578,431.339203 61.453178,438.400604 55.150002,444.983093 
	C52.991474,447.237213 51.466732,450.088715 49.562611,452.599182 
	C48.237465,454.346283 48.284859,455.853546 49.761829,457.493469 
	C52.528835,460.565643 55.204075,463.720459 57.941124,466.868073 
	C63.229328,463.120178 67.543472,460.320160 71.562569,457.146484 
	C76.189438,453.492920 81.043617,452.656342 86.466858,454.877563 
	C93.990402,457.959015 101.562714,460.927704 109.020699,464.160217 
	C113.010826,465.889740 115.567810,468.810944 116.457436,473.425934 
	C117.634094,479.529877 117.481621,485.926025 119.910095,491.647034 
	C123.868759,491.647034 127.531471,491.564636 131.188416,491.674438 
	C133.868835,491.754913 135.556381,491.235443 135.809494,487.990143 
	C136.104065,484.213165 137.281189,480.508179 137.622452,476.731049 
	C138.277405,469.481628 141.746719,464.852417 148.813492,462.613068 
	C153.700363,461.064453 158.668884,459.342712 163.071289,456.786255 
	C172.136780,451.521912 179.392227,454.027252 187.236206,459.843414 
	C197.896576,467.747894 194.551941,467.575531 203.927261,458.982330 
	C206.903961,456.253937 206.466080,454.147858 204.324326,451.380402 
	C201.585815,447.841736 199.001816,444.175415 196.499817,440.463898 
	C193.845642,436.526672 192.977493,432.378479 195.118256,427.789124 
	C197.080505,423.582458 198.696869,419.215485 200.505554,414.935974 
	C207.520477,398.337952 204.097626,399.540344 222.827423,396.041290 
	C224.450195,395.738098 226.153305,395.867279 227.777557,395.569244 
	C229.883484,395.182861 232.598160,394.854706 232.479965,392.081299 
	C232.288834,387.596039 234.191116,382.848511 231.190659,378.671326 
	C230.912460,378.283997 229.941223,378.383331 229.288300,378.278168 
	C225.208862,377.621185 221.145294,376.824524 217.044464,376.351227 
	C210.732864,375.622742 206.144669,372.873993 203.883118,366.620209 
	C202.305542,362.257782 200.682632,357.849365 198.477386,353.788727 
	C193.147232,343.973969 192.837051,335.296387 200.675491,326.086456 
	C207.655411,317.885254 206.864059,317.347595 198.714813,309.727722 
	C196.471283,307.629944 194.728363,307.319702 192.271606,309.224091 
	C188.475174,312.166962 184.477036,314.848328 180.595062,317.682556 
	C177.286377,320.098206 173.816086,320.924988 169.877258,319.275299 
	C161.773453,315.881165 153.622421,312.599884 145.516525,309.210632 
	C141.005676,307.324554 138.504669,303.818115 137.770798,299.027771 
	C137.044266,294.285370 136.328659,289.540985 135.661346,284.790039 
	C135.499695,283.639191 135.697678,282.054504 134.396744,281.798889 
	C129.964325,280.927948 125.362099,280.793884 121.022339,281.752319 
	C117.412926,282.549438 118.635567,286.348633 118.200211,289.000763 
	C117.878876,290.958252 117.567642,292.917603 117.224182,294.871246 
	C116.126640,301.114227 115.401093,307.505798 107.995628,310.007050 
	C104.076157,311.330872 100.388283,313.353149 96.453072,314.614655 
	C90.391319,316.557892 85.005745,320.899841 77.379807,319.590027 
z"/>
<path fill="#000000" opacity="1.000000" stroke="none" 
	d="
M409.023529,146.920990 
	C398.828003,124.463524 382.552185,109.031342 359.083374,102.459023 
	C331.796204,94.817406 307.144470,100.625259 286.186035,119.961929 
	C268.689911,136.104202 260.661804,156.430786 261.421112,180.120422 
	C261.737305,189.986374 264.649841,199.354599 268.561584,208.402054 
	C272.174561,216.758484 268.519592,221.760788 264.523163,224.012634 
	C259.091248,227.073318 252.218002,224.861923 249.297318,219.044785 
	C245.106369,210.697632 242.157990,201.848602 240.810944,192.625305 
	C237.973282,173.195663 239.783936,154.320587 247.791122,136.109344 
	C256.236084,116.902473 269.602722,102.148956 287.338654,91.343842 
	C305.506531,80.275604 325.577728,75.776955 346.556702,77.861931 
	C380.014862,81.187164 405.955780,97.359314 423.264313,126.479637 
	C433.855743,144.298920 437.994995,163.904343 436.166718,184.355621 
	C433.950378,209.147583 423.901703,230.463211 405.444092,247.722794 
	C391.331146,260.919678 374.995880,269.344666 356.102692,272.850494 
	C334.883911,276.787903 314.480408,273.842072 294.980835,264.779938 
	C289.182678,262.085327 287.351318,256.549835 289.613800,250.498932 
	C291.433380,245.632584 296.996948,242.968323 302.668213,244.640274 
	C311.062531,247.114990 319.067505,250.668594 327.908386,251.909515 
	C343.628937,254.116119 358.385925,251.292496 372.274902,244.233826 
	C391.519867,234.453110 404.655670,219.110031 411.206879,198.452072 
	C416.677826,181.200638 415.605377,164.099823 409.023529,146.920990 
z"/>
<path fill="#000000" opacity="1.000000" stroke="none" 
	d="
M284.307800,230.845581 
	C287.260956,235.774261 287.061707,242.261261 284.059174,245.524384 
	C281.393585,248.421310 274.309662,249.475632 270.639557,247.521637 
	C265.753876,244.920456 263.601654,237.893326 266.160675,232.897980 
	C268.662109,228.015091 276.072723,225.814896 281.294159,228.470108 
	C282.311707,228.987579 283.179871,229.798752 284.307800,230.845581 
z"/>
<path fill="#000000" opacity="1.000000" stroke="none" 
	d="
M167.567795,401.525909 
	C175.143250,379.154694 164.963196,358.705353 147.737915,349.087006 
	C140.193588,344.874359 131.902618,342.354462 122.915512,343.948273 
	C116.895828,345.015869 110.626717,340.759979 109.737595,335.233398 
	C108.579796,328.036743 111.987541,323.727081 119.624046,322.646057 
	C153.761322,317.813538 185.292053,341.554199 191.112717,375.085663 
	C194.996902,397.461548 188.887039,417.347870 172.598831,433.309387 
	C157.127472,448.470428 138.210876,453.510742 116.748741,450.629852 
	C88.905190,446.892395 67.132523,424.039032 62.930214,395.066986 
	C62.038128,388.916656 61.775589,382.435272 63.425545,376.221313 
	C64.935905,370.533142 69.617134,367.102386 74.596039,367.731720 
	C80.396004,368.464783 84.541328,372.917145 84.281509,378.993408 
	C83.787155,390.554718 85.432838,401.328094 92.071823,411.293915 
	C103.020416,427.728912 126.928520,434.312073 144.649399,425.723419 
	C155.352432,420.536102 162.948868,412.799957 167.567795,401.525909 
z"/>
<path fill="#000000" opacity="1.000000" stroke="none" 
	d="
M84.320557,358.101166 
	C78.575928,354.612976 76.820816,348.327698 79.790565,343.010162 
	C82.620201,337.943512 88.899063,336.187958 94.441483,338.913788 
	C98.899117,341.106079 101.104843,347.586517 99.093452,352.581146 
	C96.828499,358.205383 91.019936,360.502380 84.320557,358.101166 
z"/>
</svg>