<svg xmlns="http://www.w3.org/2000/svg" viewBox="0 0 64 64"><path fill="#222" d="M12.349 55.219a5.256 5.256 0 0 1-5.25-5.25v-3.7a5.252 5.252 0 0 1 10.5 0v3.7a5.256 5.256 0 0 1-5.25 5.25zm0-11.2a2.253 2.253 0 0 0-2.253 2.25v3.7a2.253 2.253 0 0 0 2.25 2.25 2.253 2.253 0 0 0 2.25-2.25v-3.7a2.253 2.253 0 0 0-2.247-2.254zm13.102 11.2a5.256 5.256 0 0 1-5.25-5.25v-9.7a5.252 5.252 0 0 1 10.5 0v9.7a5.256 5.256 0 0 1-5.25 5.25zm0-17.2a2.253 2.253 0 0 0-2.253 2.25v9.7a2.253 2.253 0 0 0 2.25 2.25 2.253 2.253 0 0 0 2.25-2.25v-9.7a2.253 2.253 0 0 0-2.247-2.254zm13.101 17.2a5.256 5.256 0 0 1-5.25-5.25v-15.7a5.252 5.252 0 0 1 10.5 0v15.7a5.256 5.256 0 0 1-5.25 5.25zm0-23.2a2.253 2.253 0 0 0-2.253 2.25v15.7a2.253 2.253 0 0 0 2.25 2.25 2.253 2.253 0 0 0 2.25-2.25v-15.7a2.252 2.252 0 0 0-2.247-2.254zm13.102 23.2a5.256 5.256 0 0 1-5.25-5.25v-21.7a5.252 5.252 0 0 1 10.5 0v21.7a5.256 5.256 0 0 1-5.25 5.25zm0-29.2a2.253 2.253 0 0 0-2.253 2.25v21.7a2.253 2.253 0 0 0 2.25 2.25 2.253 2.253 0 0 0 2.25-2.25v-21.7a2.252 2.252 0 0 0-2.247-2.254zm-38.911 6.402a1.5 1.5 0 0 1-.742-2.8l33.064-18.748a1.5 1.5 0 1 1 1.479 2.609L13.481 32.226a1.5 1.5 0 0 1-.738.195z"/><path fill="#222" d="M45.806 13.678a1.5 1.5 0 0 1-.4-.055l-6.861-1.9a1.5 1.5 0 0 1 .8-2.891l6.861 1.9a1.5 1.5 0 0 1-.4 2.946Z"/><path fill="#222" d="M43.909 20.539a1.5 1.5 0 0 1-1.447-1.9l1.9-6.862a1.5 1.5 0 1 1 2.891.8l-1.9 6.861a1.5 1.5 0 0 1-1.444 1.101Z"/></svg>