<svg xmlns="http://www.w3.org/2000/svg" data-name="Layer 1" viewBox="0 0 128 128"><path d="M93.94 48.352 94 26.005a4 4 0 0 0-6.847-2.808c-5.178 5.288-18.452 18.82-48.099 23.582A5.995 5.995 0 0 0 34 44H16a6.007 6.007 0 0 0-5.762 4.344c-1.195-.042-2.4-.09-3.634-.16A6.017 6.017 0 0 0 2.12 49.85a6.687 6.687 0 0 0-2.087 4.827L0 67.012a6.695 6.695 0 0 0 2.11 4.896 5.878 5.878 0 0 0 4.463 1.621c1.215-.085 2.402-.148 3.58-.204a6.003 6.003 0 0 0 5.598 4.662c.783 1.604 1.54 3.2 2.185 4.603 3.21 6.256 1.619 14.494.786 17.746a2.961 2.961 0 0 0 .85 2.936 2.859 2.859 0 0 0 2.817.562l13.647-4.882a2.971 2.971 0 0 0 1.709-1.616 3.056 3.056 0 0 0 .01-2.42L32.03 81.683A34.112 34.112 0 0 1 30.553 78H34a6.002 6.002 0 0 0 5.314-3.224c28.975 4.77 42.372 18.58 47.623 24.002a4.035 4.035 0 0 0 4.375.928 3.972 3.972 0 0 0 2.498-3.686l.06-22.34a13.953 13.953 0 0 0 .07-25.328zM10 69.324c-1.22.06-2.451.127-3.706.215a1.943 1.943 0 0 1-1.452-.553A2.717 2.717 0 0 1 4 67.024l.034-12.336a2.703 2.703 0 0 1 .83-1.927 2.031 2.031 0 0 1 1.514-.585c1.219.07 2.423.118 3.622.16zM33.67 95.55l-10.621 3.8c.9-4.44 1.722-12.2-1.516-18.508-.237-.516-.716-1.55-1.33-2.842h6.145a37.45 37.45 0 0 0 2.038 5.33zM36 72a2.002 2.002 0 0 1-2 2H16a2.002 2.002 0 0 1-2-2V50a2.002 2.002 0 0 1 2-2h18a2.002 2.002 0 0 1 2 2zm54 24-.19-.005C84.302 90.308 70.227 75.8 40 70.827V50.634a102.825 102.825 0 0 0 25.396-7.422A76.449 76.449 0 0 0 90 26zm3.883-26.936.044-16.098a9.957 9.957 0 0 1-.044 16.098zM107 55a1.993 1.993 0 0 0 1.414-.586l6-6a2 2 0 0 0-2.828-2.828l-6 6A2 2 0 0 0 107 55zm-1.414 15.414 6 6a2 2 0 0 0 2.828-2.828l-6-6a2 2 0 0 0-2.828 2.828z"/><circle cx="25" cy="61" r="2" transform="rotate(-89.883 25 61)"/><path d="M76.002 17a1.992 1.992 0 0 0 1.168-.377l12.514-9.018a1.996 1.996 0 0 0 3.843.84l2.325-5.688a2 2 0 0 0-2.116-2.74L87.715.82a1.997 1.997 0 0 0-.663 3.75L74.83 13.377A2 2 0 0 0 76 17zm36-3a1.997 1.997 0 0 0 1.16-.372l9.274-6.624a1.981 1.981 0 0 0 1.755 1.06 2.002 2.002 0 0 0 1.828-1.187l1.808-4.064a2 2 0 0 0-2.07-2.799l-4.683.574a1.993 1.993 0 0 0-1.219 3.342l-9.018 6.442A2 2 0 0 0 112.002 14z"/><circle cx="105.469" cy="16.844" r="2" transform="rotate(-89.883 105.468 16.844)"/><circle cx="69" cy="20" r="2" transform="rotate(-89.883 69 20)"/><path d="M93.527 119.554a1.996 1.996 0 0 0-3.843.84l-12.514-9.017a2 2 0 0 0-2.34 3.246l12.222 8.806a1.997 1.997 0 0 0 .663 3.75l6.02.803a2 2 0 0 0 2.117-2.74zm32.492 1.569a1.99 1.99 0 0 0-3.583-.127l-9.273-6.624a2 2 0 0 0-2.326 3.256l9.02 6.441a1.977 1.977 0 0 0-.525 1.114 2 2 0 0 0 1.742 2.229l4.683.573A2.045 2.045 0 0 0 126 128a2 2 0 0 0 1.826-2.814z"/><circle cx="105.469" cy="111.156" r="2" transform="translate(-.227 .216)"/><circle cx="69" cy="108" r="2" transform="translate(-.22 .141)"/><path d="M120 61a2 2 0 0 0-2-2h-10a2 2 0 0 0 0 4h10a2 2 0 0 0 2-2zM59 33a6 6 0 1 0-6-6 6.007 6.007 0 0 0 6 6zm0-8a2 2 0 1 1-2 2 2.002 2.002 0 0 1 2-2zm0 70a6 6 0 1 0 6 6 6.007 6.007 0 0 0-6-6zm0 8a2 2 0 1 1 2-2 2.002 2.002 0 0 1-2 2z"/></svg>