<svg xmlns="http://www.w3.org/2000/svg" viewBox="0 0 64 64"><g data-name="Backup Line"><path fill="none" stroke="#0c084c" stroke-linecap="round" stroke-linejoin="round" stroke-width="2" d="M8.17 19.42L7.75 20a2 2 0 0 1 1.79-1.36A2 2 0 0 0 8.17 19.42zM9.77 18.62h0zM39.13 18.62V48a2 2 0 0 1-2 2H9.64a2 2 0 0 1-2-2V28.62H32a2 2 0 0 0 1.71-1z"/><path fill="none" stroke="#0c084c" stroke-linecap="round" stroke-linejoin="round" stroke-width="2" d="M54.21,28.62V48a2,2,0,0,1-2,2H37.13a2,2,0,0,0,2-2V18.62L46,27.82a2.41,2.41,0,0,0,1.81.8Z"/><path fill="none" stroke="#0c084c" stroke-linecap="round" stroke-linejoin="round" stroke-width="2" d="M39.13,18.62l-5.42,9a2,2,0,0,1-1.71,1H4.74a1.74,1.74,0,0,1-1.38-2.78L7.75,20l.42-.57a2,2,0,0,1,1.37-.79H39.13Z"/><path fill="none" stroke="#0c084c" stroke-linecap="round" stroke-linejoin="round" stroke-width="2" d="M59,28.62H47.82a2.41,2.41,0,0,1-1.81-.8l-6.88-9.2H55.39a2,2,0,0,1,1.71,1l3.6,6A2,2,0,0,1,59,28.62Z"/><rect width="12" height="5" x="23" y="41" fill="none" stroke="#0c084c" stroke-linecap="round" stroke-linejoin="round" stroke-width="2" rx="2"/></g><path fill="#0c084c" d="M61.56,25.08l-3.6-6a3,3,0,0,0-2.57-1.46h-46a3,3,0,0,0-2.49,1.82L2.56,25.24a2.7,2.7,0,0,0-.27,2.85,2.73,2.73,0,0,0,2.45,1.53h1.9V48a3,3,0,0,0,3,3H52.21a3,3,0,0,0,3-3V29.62H59a3,3,0,0,0,2.57-4.54ZM4.08,27.21a.72.72,0,0,1,.08-.77l4.39-5.86L9,20a1,1,0,0,1,.22-.2l.08-.07a1.27,1.27,0,0,1,.18-.06,1.42,1.42,0,0,1,.22-.07H37.36l-4.51,7.52a1,1,0,0,1-.85.48H4.74A.73.73,0,0,1,4.08,27.21ZM8.64,48V29.62H32a3,3,0,0,0,2.57-1.46l3.56-5.93V48a1,1,0,0,1-1,1H9.64A1,1,0,0,1,8.64,48Zm44.57,0a1,1,0,0,1-1,1H40c0-.08,0-.17.07-.26s0-.12,0-.18a2.6,2.6,0,0,0,.06-.56V21.63l5.08,6.79a3.39,3.39,0,0,0,2.61,1.2h5.39Zm6.65-20.88a1,1,0,0,1-.87.5H47.82a1.46,1.46,0,0,1-1-.4l-5.68-7.6H55.39a1,1,0,0,1,.86.48l3.6,6A1,1,0,0,1,59.86,27.12Z"/><path fill="#0c084c" d="M33,40H25a3,3,0,0,0-3,3v1a3,3,0,0,0,3,3h8a3,3,0,0,0,3-3V43A3,3,0,0,0,33,40Zm1,4a1,1,0,0,1-1,1H25a1,1,0,0,1-1-1V43a1,1,0,0,1,1-1h8a1,1,0,0,1,1,1Z"/></svg>