<svg xmlns="http://www.w3.org/2000/svg" data-name="Layer 1" viewBox="0 0 128 128"><path d="M50.5 120a2 2 0 0 0 0-4h-18a2 2 0 0 0 0 4zm29-63.585v4.786c.017.004.032.01.049.013a19.997 19.997 0 1 0-20.048.068v-4.819a15.998 15.998 0 1 1 19.999-.048z"/><path d="M113 16H23a6.007 6.007 0 0 0-6 6v44a6.007 6.007 0 0 0 6 6h36.501v-4H36.882A18.026 18.026 0 0 0 21 52.118V35.882A18.026 18.026 0 0 0 36.882 20h62.236A18.026 18.026 0 0 0 115 35.882v16.236A18.026 18.026 0 0 0 99.118 68H89.85a9.945 9.945 0 0 1 4.302 4H113a6.007 6.007 0 0 0 6-6V22a6.007 6.007 0 0 0-6-6ZM32.84 68H23a2.003 2.003 0 0 1-2-2v-9.84A14.008 14.008 0 0 1 32.84 68ZM21 31.84V22a2.003 2.003 0 0 1 2-2h9.84A14.008 14.008 0 0 1 21 31.84ZM115 66a2.003 2.003 0 0 1-2 2h-9.84A14.008 14.008 0 0 1 115 56.16Zm0-34.16A14.008 14.008 0 0 1 103.16 20H113a2.003 2.003 0 0 1 2 2Z"/><path d="M69.638 32.032a1.261 1.261 0 0 0-1.258 1.252V34.8c-3.5.373-5.032 2.42-5.032 4.788 0 2.65 1.705 3.899 3.704 4.728a9.87 9.87 0 0 1 9.273 2.396c-1.31-5.036-9.804-3.907-9.804-7.124 0-1.063.846-2.101 3.117-2.101a5.73 5.73 0 0 1 3.827 1.41 1.827 1.827 0 0 0 1.176.585 1.447 1.447 0 0 0 1.476-1.41 1.509 1.509 0 0 0-.274-.852 7.062 7.062 0 0 0-4.92-2.394v-1.542a1.267 1.267 0 0 0-1.285-1.252Z"/><path d="M62.5 124H17a4 4 0 0 1-4-4V8a4 4 0 0 1 4-4h13.306l3.74 6.948A2 2 0 0 0 35.809 12h19.384a2 2 0 0 0 1.761-1.052L60.694 4H73a4 4 0 0 1 4 4v4h4V8a8.009 8.009 0 0 0-8-8H17a8.009 8.009 0 0 0-8 8v112a8.01 8.01 0 0 0 8 8h45.85a5.96 5.96 0 0 1-.35-2ZM56.151 4l-2.153 4H37.002l-2.153-4Z"/><path d="M93.5 76a5.96 5.96 0 0 0-2.035.363A5.981 5.981 0 0 0 83.5 71.35V71a5.983 5.983 0 0 0-8-5.65V54a6 6 0 1 0-11.999 0v29.496a676.16 676.16 0 0 1-5.507-5.303 6.213 6.213 0 0 0-4.22-1.666 6.284 6.284 0 0 0-5.153 2.752 6.824 6.824 0 0 0 .474 8.09l12.901 14.961a29.097 29.097 0 0 1 3.065 4.724 30.272 30.272 0 0 1 3.005 8.996A1.999 1.999 0 0 0 66.5 118v8a2 2 0 0 0 2 2h26a2 2 0 0 0 2-2v-8a2 2 0 0 0-2-2h-.806a18.808 18.808 0 0 1 2.194-5.919 3.7 3.7 0 0 0 .191-.328C99.11 104.58 99.5 98.087 99.5 93V82a6.007 6.007 0 0 0-6-6Zm-1 48h-22v-4h22Zm3-31c0 4.596-.33 10.429-2.938 14.86-.032.042-.06.087-.087.133a23.373 23.373 0 0 0-2.84 8.007H72.103a34.24 34.24 0 0 0-3.496-10.797 33.137 33.137 0 0 0-3.533-5.428l-12.9-14.958a2.78 2.78 0 0 1-.259-3.266 2.256 2.256 0 0 1 1.86-1.024 2.162 2.162 0 0 1 1.468.569c9.61 9.355 9.61 9.352 11.033 8.754A2.015 2.015 0 0 0 67.501 88V54a2 2 0 1 1 3.999 0v35a2 2 0 0 0 4 0V71a2 2 0 0 1 4 0v18a2 2 0 0 0 4 0V77a2 2 0 0 1 4 0v12a2 2 0 0 0 4 0v-7a2 2 0 0 1 4 0Z"/></svg>