<svg version="1.1" id="Layer_1" xmlns="http://www.w3.org/2000/svg" xmlns:xlink="http://www.w3.org/1999/xlink" x="0px" y="0px"
	 width="100%" viewBox="0 0 512 512" enable-background="new 0 0 512 512" xml:space="preserve">
<path fill="#000000" opacity="1.000000" stroke="none" 
	d="
M513.000000,152.535355 
	C511.115692,165.588364 508.925842,178.140808 507.440002,190.776016 
	C506.164825,201.619247 502.010010,204.948868 491.139069,203.105606 
	C481.847351,201.530106 472.561401,199.834274 463.113037,199.319427 
	C459.589508,199.127426 457.008606,200.165131 455.291443,203.390549 
	C453.589417,206.587524 454.775696,209.040161 456.706726,211.611191 
	C462.380737,219.165817 467.841095,226.881882 473.563538,234.398911 
	C479.290985,241.922623 478.708984,247.353821 471.261414,252.922928 
	C459.174896,261.960907 447.188019,271.136566 434.963287,279.983612 
	C427.710510,285.232483 423.485992,284.377075 418.132629,277.287811 
	C412.531982,269.871002 406.965698,262.426910 401.488647,254.918716 
	C399.026367,251.543304 396.038269,249.366318 391.768463,250.533096 
	C387.865936,251.599533 386.772858,254.845917 386.242401,258.555328 
	C384.792145,268.696808 383.367035,278.851959 381.484039,288.917908 
	C380.233124,295.604858 376.784454,298.041504 370.237640,297.248749 
	C360.220001,296.035706 350.241791,294.492737 340.253448,293.044006 
	C334.363617,292.189728 328.495483,291.183716 322.601624,290.360138 
	C315.059723,289.306244 311.790283,285.401947 312.749542,277.731659 
	C313.982300,267.874084 315.290466,258.011841 317.069275,248.243240 
	C317.824799,244.094009 316.216644,241.138168 313.423492,239.216888 
	C310.778717,237.397720 307.473694,237.957916 304.623260,240.129623 
	C297.106750,245.856323 289.419769,251.359818 281.921539,257.109772 
	C274.107971,263.101532 268.795715,262.485321 262.961884,254.684082 
	C254.320511,243.128372 245.673782,231.576538 236.990555,220.052261 
	C230.717926,211.727295 231.383713,206.991745 239.641312,200.863861 
	C247.114334,195.318192 254.527405,189.691193 261.934540,184.057510 
	C264.513763,182.095840 266.820068,179.739487 265.893951,176.180313 
	C264.752747,171.794449 261.404663,169.913681 257.071411,169.345901 
	C247.066010,168.034866 237.056686,166.735306 227.082413,165.212051 
	C220.945526,164.274826 217.954819,159.359955 218.895203,153.168213 
	C221.256866,137.618423 223.547577,122.055504 225.611542,106.464073 
	C226.364838,100.773659 229.748016,96.212334 236.241364,96.528717 
	C246.051910,97.006737 255.601654,99.130119 265.309357,100.162636 
	C266.953613,100.337517 268.607635,100.671356 270.245483,100.611656 
	C277.075012,100.362724 280.382660,94.398087 276.491486,88.793724 
	C270.909637,80.754295 264.883392,73.023689 259.062653,65.149574 
	C258.076111,63.815010 256.467560,62.481548 256.345306,61.045494 
	C255.789001,54.511200 251.237320,55.031441 246.886658,55.419594 
	C216.639267,58.118160 189.555130,68.727455 166.010544,88.050476 
	C138.264404,110.821716 121.696243,140.239120 115.650047,175.351639 
	C110.494453,205.292099 115.211922,234.075089 128.734238,261.340240 
	C134.891327,273.754852 142.867172,284.786469 152.120178,295.197144 
	C161.871078,306.168030 174.014908,313.835510 185.326828,322.707764 
	C198.338852,332.913452 205.827332,346.115631 207.510330,362.881592 
	C208.797592,375.705292 207.988800,388.484406 208.301208,401.278229 
	C208.563217,412.007172 214.932022,418.592987 225.827530,418.627167 
	C246.493423,418.691956 267.174103,418.179993 287.820496,418.817688 
	C300.866821,419.220673 308.607910,411.110229 308.647888,397.828491 
	C308.680511,386.995544 308.378204,376.152893 308.738220,365.331604 
	C309.340302,347.233795 317.583740,332.998505 331.794617,322.071655 
	C338.110352,317.215424 344.600250,312.582306 350.841370,307.633850 
	C353.395538,305.608673 355.143219,305.052216 357.358978,308.081818 
	C359.404633,310.878845 362.377411,312.884827 364.507294,315.715027 
	C366.576019,318.463928 366.332581,320.224518 363.503723,322.250488 
	C356.902771,326.977997 350.513336,331.999481 343.987335,336.833191 
	C332.943634,345.013214 327.368195,355.935059 327.350555,369.680420 
	C327.338806,378.846832 327.450989,388.014679 327.324097,397.179321 
	C327.138000,410.620636 324.305298,422.940582 312.166931,431.079590 
	C310.011841,432.524628 310.343872,434.836243 310.342621,436.984894 
	C310.335327,449.651184 310.525848,462.321320 310.263489,474.982147 
	C310.137146,481.079865 309.533630,487.230072 306.986725,492.950867 
	C302.686676,502.609558 295.136566,508.714874 285.261230,512.779297 
	C267.312439,513.000000 249.624878,513.000000 231.230988,512.757874 
	C229.795349,512.138489 229.099686,511.664032 228.331772,511.398529 
	C216.190216,507.201416 206.028183,492.959625 206.543152,479.815765 
	C207.084229,466.005920 206.539474,452.156555 206.738831,438.328339 
	C206.793961,434.504913 205.860794,431.905273 202.600220,429.571960 
	C193.768356,423.251801 189.649902,414.348175 189.650986,403.515533 
	C189.651718,396.247467 189.651138,388.979370 189.651138,381.711304 
	C189.253113,381.485352 188.855072,381.259399 188.457047,381.033447 
	C185.527786,384.135956 182.672531,387.312653 179.652603,390.324219 
	C174.595795,395.367096 169.924377,395.904236 164.023193,392.078949 
	C157.371323,387.767059 150.808594,383.317627 144.261719,378.964355 
	C142.976120,379.724640 142.676788,380.840973 142.437485,381.981598 
	C141.078735,388.457947 139.657806,394.922241 138.390259,401.416473 
	C136.881607,409.146179 133.502426,412.162567 125.485428,412.313232 
	C118.322304,412.447845 111.152084,412.229034 103.989998,412.389313 
	C86.238876,412.786530 85.699135,409.109406 83.419060,395.577942 
	C82.481674,390.014893 81.685371,384.260986 79.057938,378.626038 
	C72.025024,383.342712 65.453384,387.805084 58.823631,392.179352 
	C53.293728,395.827972 48.193645,395.307831 43.544701,390.671600 
	C36.583286,383.729156 29.657627,376.750854 22.722921,369.781647 
	C16.032072,363.057434 15.689865,358.624298 21.073511,350.940430 
	C25.215927,345.028107 29.237139,339.030884 33.210777,333.219818 
	C31.721933,331.500763 30.140879,331.695251 28.735762,331.273468 
	C19.495317,328.499817 9.194174,329.253387 1.000000,323.000000 
	C1.000000,308.312439 1.000000,293.624878 1.310895,278.305542 
	C6.903637,272.812653 13.938053,273.346680 20.240259,271.627838 
	C24.449673,270.479828 28.912615,270.158997 33.203934,268.142548 
	C28.538767,261.050507 24.114405,254.454117 19.828180,247.769165 
	C16.133440,242.006699 16.686079,237.345795 21.446978,232.563416 
	C28.617670,225.360367 35.799435,218.168304 42.989326,210.984406 
	C48.430328,205.547958 53.012283,204.954468 59.408604,209.151733 
	C65.895264,213.408279 72.244728,217.873871 78.743484,222.308792 
	C80.111885,220.898911 80.397758,219.532120 80.689491,218.028229 
	C82.046249,211.034027 83.375572,204.025482 85.071480,197.109543 
	C86.059486,193.080460 88.137062,189.604675 93.092819,189.653305 
	C96.080322,189.682617 96.599663,187.990967 96.673927,185.478653 
	C97.089539,171.419937 100.152435,157.780350 104.871574,144.674347 
	C114.667648,117.468727 130.220215,94.172768 152.464752,75.227989 
	C169.861557,60.411827 189.348038,49.870247 210.964294,43.105019 
	C230.363556,37.033642 250.392899,35.898556 270.565552,36.774376 
	C273.064728,36.882877 274.976624,36.521622 276.976715,34.957897 
	C283.783508,29.636215 290.739838,24.505762 297.639252,19.302563 
	C303.139954,15.154250 310.002319,15.976910 314.181549,21.786833 
	C319.888245,29.720152 325.822113,37.492996 331.782471,45.239326 
	C333.975983,48.090126 336.758728,50.567341 340.713165,49.306889 
	C344.173248,48.204014 345.965332,45.189491 346.521118,41.773705 
	C348.009735,32.625042 349.746887,23.476221 350.478699,14.255509 
	C351.354828,3.216107 357.016541,1.651796 365.569855,2.754711 
	C380.982666,4.742136 396.329163,7.256036 411.685089,9.666519 
	C418.063110,10.667706 420.827820,15.134254 419.798889,21.474676 
	C418.182709,31.433741 416.789856,41.430588 415.426727,51.428383 
	C414.925598,55.103550 415.752197,58.473576 419.223511,60.523212 
	C422.788055,62.627895 425.741455,61.292431 428.794678,58.963345 
	C436.716644,52.920223 444.720001,46.971527 452.887207,41.266159 
	C458.982727,37.007996 464.225677,37.786953 468.586731,43.545033 
	C477.989319,55.959747 487.315765,68.436684 496.424164,81.067848 
	C501.462311,88.054573 500.147614,93.332802 493.224945,98.416916 
	C485.340210,104.207626 477.592834,110.191078 469.914154,116.253357 
	C467.510406,118.151070 465.689453,120.791336 466.682739,124.092201 
	C467.674652,127.388596 470.146545,129.201065 473.632996,129.703827 
	C482.467987,130.977859 491.290375,132.339233 500.117096,133.670349 
	C504.849884,134.384079 509.810486,134.553253 513.000000,139.000000 
	C513.000000,143.356903 513.000000,147.713806 513.000000,152.535355 
M303.754700,40.287010 
	C302.917053,39.672222 302.165955,40.050957 301.487946,40.554043 
	C293.800140,46.258621 286.122955,51.977539 278.588989,57.583935 
	C279.097778,60.194855 280.512482,61.655148 281.653412,63.251942 
	C285.798218,69.052818 290.684967,74.355820 293.971832,80.729492 
	C298.360352,89.239365 298.834076,97.897018 293.724640,106.317871 
	C288.852875,114.346977 281.851715,118.990578 272.216705,119.397316 
	C264.175629,119.736771 256.373901,118.011780 248.556793,116.716515 
	C244.431152,116.032913 242.763657,117.573181 242.479172,121.056084 
	C241.871506,128.495316 240.579208,135.822342 239.436615,143.180130 
	C238.916946,146.526672 240.144180,148.359253 243.952240,148.744919 
	C250.855377,149.444046 257.758911,150.412521 264.560547,151.776016 
	C274.549377,153.778442 281.327942,159.931290 284.067200,169.675842 
	C287.087311,180.419571 284.638641,189.825256 275.813965,197.391434 
	C270.383240,202.047714 264.613190,206.214722 258.898132,210.471710 
	C256.759583,212.064636 256.172028,213.405792 258.039612,215.753998 
	C262.273651,221.077744 266.261475,226.597595 270.336395,232.047440 
	C271.798676,234.003098 272.680939,236.505249 275.688873,237.457275 
	C279.137909,234.924454 282.800995,232.371857 286.313904,229.627045 
	C294.516602,223.217804 302.730530,217.704376 314.200348,219.537521 
	C329.418915,221.969833 337.565674,235.336716 335.907593,249.070465 
	C335.095001,255.801178 334.177521,262.519257 333.370026,269.250549 
	C333.101990,271.485016 333.760590,273.216248 336.355957,273.561615 
	C345.500641,274.778442 354.643494,276.009033 364.175781,277.286499 
	C365.366882,269.543030 366.601898,262.230377 367.596222,254.885132 
	C369.159515,243.336655 376.578674,233.771423 386.737976,231.894714 
	C398.212219,229.775146 408.423950,232.323212 415.789673,242.321335 
	C419.527374,247.394836 423.456329,252.327774 427.175446,257.414459 
	C428.264740,258.904297 429.198273,260.285675 431.115601,258.887848 
	C438.966431,253.164185 446.771240,247.377426 454.662903,241.562363 
	C449.445435,234.291275 444.621277,227.572327 439.801331,220.850357 
	C430.347961,207.666565 436.307281,182.777496 458.289978,180.577454 
	C467.596802,179.645996 476.713745,181.883865 485.865143,183.111908 
	C488.125519,183.415237 489.297729,183.478088 489.662842,180.898117 
	C490.891968,172.213531 492.263550,163.549194 493.532562,154.870087 
	C493.800812,153.035416 493.405212,151.646378 491.087250,151.385727 
	C485.827759,150.794342 480.582611,150.066299 475.341064,149.326813 
	C466.826660,148.125595 458.604401,146.194489 453.062988,138.779770 
	C443.559967,126.064194 446.478394,109.101212 459.557892,99.725372 
	C465.317657,95.596619 470.858337,91.162231 476.878723,86.577003 
	C470.419159,77.983765 464.297028,69.839401 458.149628,61.661453 
	C449.988007,66.454773 443.698792,72.750725 436.027802,77.099121 
	C427.280701,82.057571 418.423279,81.618057 409.853241,77.318481 
	C400.864075,72.808640 396.954529,64.759125 396.690704,54.920258 
	C396.489502,47.416225 398.380493,40.130001 399.327972,32.744297 
	C399.664368,30.122206 400.885193,26.928734 396.281952,26.344175 
	C387.283356,25.201454 378.311920,23.845072 368.985901,22.528681 
	C366.493744,29.508511 366.140228,36.635632 365.399689,43.632481 
	C364.157471,55.369205 356.869507,64.445877 345.480042,67.709435 
	C335.286621,70.630272 323.380157,66.394379 316.723389,57.479477 
	C312.552612,51.893867 308.381104,46.308800 303.754700,40.287010 
M53.346272,331.498962 
	C53.565292,336.032440 51.804123,339.944397 49.388271,343.591156 
	C46.732990,347.599396 44.064522,351.611786 41.151684,355.431671 
	C39.388969,357.743256 39.430614,359.424164 41.572704,361.395203 
	C44.266907,363.874329 47.048149,366.352448 49.260841,369.238159 
	C52.178741,373.043549 54.864292,372.337280 57.992096,369.779327 
	C62.764130,365.876648 67.827652,362.360626 73.452751,359.818604 
	C81.803444,356.044891 91.807571,359.843048 95.979042,367.993408 
	C97.913696,371.773315 98.294052,375.914734 99.328743,379.908264 
	C103.584747,396.334808 98.512352,393.213196 115.979263,393.719757 
	C119.338791,393.817200 120.865364,392.462219 121.473595,389.417969 
	C122.512321,384.218964 123.647301,379.039062 124.669907,373.837006 
	C127.140747,361.267822 139.336639,355.118530 150.892822,360.491547 
	C156.540375,363.117340 161.025223,367.403290 166.203735,370.693481 
	C168.735641,372.302155 170.480515,372.491119 172.637405,370.176025 
	C176.382629,366.156097 180.283524,362.268066 184.303711,358.522858 
	C186.395706,356.573914 186.362289,354.885773 185.242966,352.395294 
	C179.549301,339.726837 167.631165,333.981323 157.084122,326.106140 
	C141.646896,348.168945 121.283630,357.755035 95.296478,349.823730 
	C74.526535,343.484741 61.694534,328.471405 59.923164,306.781372 
	C57.361031,275.408600 73.695602,256.665985 103.543884,248.595032 
	C101.899879,241.554108 99.537437,234.891190 98.324150,227.685486 
	C95.339035,238.038315 88.765877,242.978210 78.053741,242.389282 
	C72.842445,242.102783 69.288681,238.753662 65.175438,236.349487 
	C60.963970,233.887894 57.024101,228.345779 52.740208,229.380783 
	C48.545902,230.394119 45.469311,235.828766 41.770409,239.177277 
	C39.672173,241.076797 39.289104,242.772873 41.070381,245.154205 
	C44.049946,249.137497 46.946838,253.199707 49.610966,257.398468 
	C55.881290,267.280670 54.453255,277.272949 45.885910,284.063721 
	C41.929260,287.199890 36.918007,287.255280 32.286419,288.375153 
	C15.454462,292.445007 18.774261,287.902649 18.305885,305.342407 
	C18.218960,308.579041 19.378807,310.181244 22.703222,310.707916 
	C27.930096,311.535980 33.113491,312.685120 38.273331,313.879578 
	C47.566730,316.031006 52.538937,321.634918 53.346272,331.498962 
M113.550621,271.804443 
	C112.269775,269.555115 111.552887,266.973907 107.862953,267.398865 
	C91.870491,269.240753 78.154564,284.483093 78.352257,300.460083 
	C78.513878,313.521393 88.803680,327.802460 100.338249,331.547180 
	C116.776413,336.883850 129.962326,329.677521 138.003372,319.655029 
	C141.918472,314.775177 141.684586,312.373535 137.784576,307.738739 
	C128.590057,296.811920 119.854332,285.578369 113.550621,271.804443 
M237.400482,494.498779 
	C249.370117,494.548645 261.349884,494.310944 273.306427,494.732208 
	C284.440308,495.124481 291.517609,486.881348 291.669739,475.241272 
	C291.705566,472.496155 290.699951,471.350250 287.892426,471.357391 
	C268.272247,471.407227 248.651779,471.397858 229.031647,471.332703 
	C226.133713,471.323090 225.444595,472.724792 225.312790,475.333466 
	C224.828094,484.924164 227.773514,489.987854 237.400482,494.498779 
M259.499939,452.661682 
	C266.990112,452.660736 274.480469,452.694214 281.970367,452.650604 
	C292.730347,452.587952 291.349915,453.837311 291.749359,443.101746 
	C291.925842,438.359314 290.259003,437.204437 285.758087,437.268097 
	C268.950165,437.505737 252.136887,437.336304 235.325775,437.380371 
	C224.136917,437.409698 225.593140,436.109619 225.273987,447.669525 
	C225.160812,451.768921 226.739227,452.802246 230.538132,452.720093 
	C239.854813,452.518768 249.178833,452.658539 259.499939,452.661682 
z"/>
<path fill="#000000" opacity="1.000000" stroke="none" 
	d="
M113.571541,1.000000 
	C119.830078,23.726818 125.660149,46.453636 131.613098,69.659462 
	C125.344238,71.258141 119.631813,72.714912 113.182434,74.359619 
	C111.230583,66.464127 109.397072,58.819748 107.446144,51.205456 
	C103.956848,37.587002 100.513954,23.954563 96.797958,10.397507 
	C95.616699,6.087913 95.976471,3.423314 101.066650,2.864033 
	C103.185226,2.631256 105.240898,1.825937 107.662582,1.140482 
	C109.714355,1.000000 111.428719,1.000000 113.571541,1.000000 
z"/>
<path fill="#000000" opacity="1.000000" stroke="none" 
	d="
M152.632507,255.221756 
	C145.648209,242.582565 141.362778,229.449890 139.639633,215.484100 
	C138.066467,202.733795 137.984940,190.020218 140.177689,177.303207 
	C142.808426,162.046051 148.546875,148.059555 156.521790,134.849930 
	C165.613647,119.790207 177.657944,107.719612 192.403458,98.252907 
	C193.083878,97.816078 193.827957,97.478424 194.670654,97.025658 
	C198.539505,100.736267 200.706375,105.451210 203.364212,109.804588 
	C205.244583,112.884521 202.821152,114.198151 200.686874,115.655388 
	C186.825546,125.119698 175.768341,137.282089 168.431946,152.284088 
	C151.780914,186.333405 153.029541,219.934204 172.986313,252.367218 
	C183.601974,269.619385 198.291412,282.530029 217.015045,290.510132 
	C231.283203,296.591339 244.231125,304.373810 253.541199,317.161682 
	C261.641693,328.288147 266.038605,340.806000 267.338440,354.472260 
	C267.717010,358.452728 266.860687,360.917480 262.054199,360.422089 
	C258.097046,360.014221 253.479431,361.309265 250.268097,359.669189 
	C246.932083,357.965424 248.398483,352.789459 247.548294,349.192932 
	C242.927841,329.647461 230.610718,317.010895 212.538193,309.420197 
	C186.339279,298.416290 166.139465,280.789612 152.632507,255.221756 
z"/>
<path fill="#000000" opacity="1.000000" stroke="none" 
	d="
M431.221954,372.774963 
	C442.820343,382.456665 454.126862,391.932587 465.483734,401.347839 
	C468.334534,403.711273 468.177734,405.870300 465.697205,408.409149 
	C463.384674,410.776062 461.259155,413.333801 459.149780,415.888885 
	C457.247162,418.193420 455.350586,418.085907 453.195435,416.280060 
	C437.582672,403.198090 421.963928,390.123169 406.315247,377.084229 
	C404.393982,375.483368 404.715088,374.140961 406.229340,372.505310 
	C408.480865,370.073242 411.067413,367.787201 412.677155,364.963470 
	C415.118011,360.681854 417.725677,361.458008 420.695892,363.864929 
	C424.174408,366.683746 427.536285,369.646454 431.221954,372.774963 
z"/>
<path fill="#000000" opacity="1.000000" stroke="none" 
	d="
M472.916656,335.360046 
	C456.310852,335.358154 440.193176,335.258270 424.078186,335.423035 
	C420.076141,335.463928 418.210541,334.330139 418.610901,330.089020 
	C418.875214,327.289581 418.868225,324.425018 418.606842,321.624725 
	C418.225372,317.537872 420.122284,316.572571 423.850739,316.602905 
	C440.630920,316.739471 457.413574,316.744598 474.193634,316.600098 
	C477.986786,316.567444 479.772949,317.651581 479.390381,321.680725 
	C479.140228,324.315308 479.094513,327.022247 479.400024,329.645172 
	C479.954865,334.407959 477.801758,335.971100 472.916656,335.360046 
z"/>
<path fill="#000000" opacity="1.000000" stroke="none" 
	d="
M367.648315,435.959808 
	C367.648621,420.302216 367.770538,405.138550 367.570374,389.979187 
	C367.515381,385.816010 368.915558,384.575012 373.012329,384.572083 
	C386.344971,384.562592 386.346130,384.417664 386.346405,397.497345 
	C386.346710,411.659668 386.225647,425.823639 386.417603,439.983337 
	C386.473114,444.080780 385.180603,445.877106 381.009064,445.374817 
	C379.530884,445.196869 378.013245,445.359772 376.513885,445.342926 
	C367.013489,445.236176 367.698181,446.453339 367.648315,435.959808 
z"/>
<path fill="#000000" opacity="1.000000" stroke="none" 
	d="
M248.655884,392.974762 
	C248.655914,391.652130 248.655823,390.823517 248.656372,389.994904 
	C248.666183,375.109680 248.688736,375.142456 263.880554,376.635834 
	C266.434509,376.886902 267.358612,377.914948 267.337891,380.342651 
	C267.282776,386.805115 267.281586,393.268677 267.334778,399.731140 
	C267.355042,402.189819 266.402466,403.453308 263.824097,403.349243 
	C262.004700,403.275726 260.178864,403.379272 258.356354,403.360413 
	C247.214081,403.245239 248.825256,404.566559 248.655884,392.974762 
z"/>
<path fill="#000000" opacity="1.000000" stroke="none" 
	d="
M23.435232,59.601273 
	C26.081272,55.945229 28.592484,52.648479 30.930355,49.233078 
	C32.765507,46.552097 34.817657,46.514805 37.250443,48.258690 
	C53.952217,60.230942 70.654785,72.202095 87.362663,84.165825 
	C89.506264,85.700768 91.682022,87.190804 94.450005,89.126144 
	C91.260353,93.901024 88.291298,98.586082 85.057648,103.080788 
	C83.535240,105.196915 81.832870,103.704948 80.323433,102.639915 
	C69.347305,94.895409 58.363781,87.161385 47.392334,79.410248 
	C41.022964,74.910400 34.594898,70.487442 28.355661,65.813095 
	C26.295622,64.269745 23.175549,63.386024 23.435232,59.601273 
z"/>
<path fill="#000000" opacity="1.000000" stroke="none" 
	d="
M11.297009,157.542877 
	C10.384470,153.960876 9.625916,150.767578 8.758186,147.114670 
	C20.482693,144.197479 31.884243,141.377396 43.276791,138.521378 
	C54.688023,135.660675 66.090271,132.764145 77.709259,129.829590 
	C80.288254,134.653732 80.843948,139.987793 82.191216,145.057297 
	C82.983543,148.038666 80.440407,148.665848 78.355911,149.186844 
	C59.381817,153.929169 40.394997,158.620636 21.408339,163.312561 
	C18.847826,163.945297 16.267588,164.498215 13.802392,165.063797 
	C11.696679,162.934280 11.715320,160.388062 11.297009,157.542877 
z"/>
<path fill="#000000" opacity="1.000000" stroke="none" 
	d="
M430.096130,175.842819 
	C420.392700,198.346634 403.882568,212.702484 380.282867,217.098907 
	C352.210236,222.328583 328.145264,214.056290 310.787354,190.698547 
	C292.756226,166.434891 293.228516,132.468994 310.601044,109.212189 
	C321.759705,94.273933 336.419922,84.661156 354.780792,81.934052 
	C391.620026,76.462402 426.698639,97.787315 434.165131,137.923843 
	C436.554596,150.768524 434.971558,163.325043 430.096130,175.842819 
M416.654327,148.619949 
	C415.089050,132.467346 408.694702,118.928658 395.170349,109.346725 
	C377.350861,96.721725 356.460968,96.505035 339.248474,108.082436 
	C317.652252,122.608452 309.273529,149.602020 322.833740,173.732544 
	C332.878967,191.608124 352.697906,202.396469 373.325989,199.416367 
	C397.467224,195.928726 415.857971,174.287094 416.654327,148.619949 
z"/>
</svg>