<svg xmlns="http://www.w3.org/2000/svg" data-name="Layer 1" viewBox="0 0 98 98"><g data-name="&lt;Group&gt;"><circle cx="36.2" cy="81.8" r="9" data-name="&lt;Path&gt;"/><circle cx="74.2" cy="81.8" r="9" data-name="&lt;Path&gt;"/><path d="M26,13.3A9.2,9.2,0,0,0,17.4,7H10.7a2,2,0,0,0,0,4h6.7a5.2,5.2,0,0,1,4.8,3.5L34.8,52.8l-.9,2.3a9.9,9.9,0,0,0,.8,8.7A9.3,9.3,0,0,0,42.2,68h39a2,2,0,0,0,0-4h-39a5,5,0,0,1-4.1-2.4,5.2,5.2,0,0,1-.5-4.8l1.2-3a2.6,2.6,0,0,0,.1-1.5l-.6-1.5L79,46.6a6.9,6.9,0,0,0,6.1-5.3l4.2-17.7-60.2-.9Z" data-name="&lt;Path&gt;"/></g></svg>