<svg xmlns="http://www.w3.org/2000/svg" data-name="Layer 1" viewBox="0 0 128 128"><path d="M93.64386,82.18457l-11.68793-21.999A5.98712,5.98712,0,0,0,76.65717,57H67.1106c-.00647-.00018-.01288.00012-.01935,0H60.90833c-.00647.00012-.01288-.00018-.01935,0H51.34283a5.98677,5.98677,0,0,0-5.29828,3.18457l-11.68842,22A6,6,0,0,0,39.65491,91h9.33435l.01031.001L49.0061,91H78.9939l.00653.001L79.01074,91h9.33435a6,6,0,0,0,5.29877-8.81543ZM76.65717,61a1.99438,1.99438,0,0,1,1.76611,1.06152L81.047,67H72.39764l-2.3877-6Zm-14.362,0h3.40967l2.3877,6H59.90747Zm7.3891,10,2.3877,6H55.928l2.3877-6ZM49.57721,62.06152A1.99306,1.99306,0,0,1,51.34283,61h6.64722l-2.3877,6h-8.649ZM47.64343,87H39.65491a2.00029,2.00029,0,0,1-1.76654-2.93848L39.515,81H50.03107ZM41.6402,77l3.18793-6h9.18243l-2.3877,6ZM51.94855,87l2.3877-6H73.66376l2.3877,6ZM73.98944,71h9.18274l3.18774,6H76.37714ZM90.05939,86.03027A1.96987,1.96987,0,0,1,88.34509,87H80.35657l-2.38763-6H88.48511l1.62653,3.06152A1.96927,1.96927,0,0,1,90.05939,86.03027Z"/><path d="M120.35974,22.68372a7.94172,7.94172,0,0,0-3.37726-2.861A127.052,127.052,0,0,0,66.61383,9H61.38629A127.04328,127.04328,0,0,0,11.01752,19.82281a7.94142,7.94142,0,0,0-3.37726,2.8609C1.37677,32.3222-.08209,39.9455.00348,45.12921c-.00092.02429.001.04791.00092.07208A20.601,20.601,0,0,0,1.0094,51.411a5.9126,5.9126,0,0,0,4.03546,3.72626c2.97754.84283,6.0108,1.30347,9.04639,1.865A2.38441,2.38441,0,0,1,16.00031,59.5a2.29456,2.29456,0,0,1-2,2.5,6.52083,6.52083,0,0,0,0,13,2.5625,2.5625,0,0,1,0,5,6.27211,6.27211,0,0,0-6,6.5,6.48138,6.48138,0,0,0,4.11584,6.16681L10.622,95.0235a3.98792,3.98792,0,0,0-.37006.774,1.97707,1.97707,0,0,0-.25165.95245c0,.05872.01233.114.01727.17145-.005.08142-.01727.16193-.01727.24384V115a4,4,0,0,0,4,4h99.99939a4,4,0,0,0,4-4V97.16528c0-.08191-.01227-.16241-.01727-.24384.00494-.05743.01727-.11273.01727-.17145a1.97707,1.97707,0,0,0-.25165-.95245,3.98793,3.98793,0,0,0-.37006-.774L89.91162,51.69971,88.9881,39.69318A4,4,0,0,0,84.99988,36h-5a4,4,0,0,0-3.98816,3.69318L75.29584,49H52.70416l-.71588-9.30682A3.99994,3.99994,0,0,0,48.00012,36h-5a4,4,0,0,0-3.98822,3.69318l-.92352,12.00653L36.185,54.702a5.76166,5.76166,0,0,0-3.89429-1.04773,6.768,6.768,0,0,0-4.32562,2.1084c-1.78937,1.87744-4.03888,5.78229.55225,11.03375L14.41309,89.04364A2.00356,2.00356,0,0,0,14.00031,89a2.5625,2.5625,0,0,1,0-5,6.52084,6.52084,0,0,0,0-13,2.5625,2.5625,0,0,1,0-5,6.27206,6.27206,0,0,0,5.99994-6.5,6.915,6.915,0,0,0-.51819-2.63086A18.68932,18.68932,0,0,0,32.3186,50.57208c.15649-.16766.29517-.31836.42224-.44342a5.52088,5.52088,0,0,0,1.67627-3.95892V37.8576l-.00055-.06427c-.00281-.17554-.0094-.58643.66614-1.27295,3.29639-3.34961,9.38989-4.1886,13.78186-4.93976a86.84287,86.84287,0,0,1,23.76947-.8847c6.02283.63159,13.059,1.33276,18.40137,4.43219a8.77305,8.77305,0,0,1,1.88208,1.3924c.67535.68634.66876,1.09729.666,1.27283l-.00055.06427v8.31213A5.52122,5.52122,0,0,0,95.259,50.12866c.12708.125.26569.27557.42212.44312C97.47717,52.49536,101.683,57,111.08533,57a44.24242,44.24242,0,0,0,11.86987-1.86279,5.91213,5.91213,0,0,0,4.0354-3.72626,20.5996,20.5996,0,0,0,1.005-6.20953c-.00006-.02423.00183-.04785.00092-.0722C128.08215,39.94543,126.62323,32.3222,120.35974,22.68372ZM30.86053,58.52246a2.77573,2.77573,0,0,1,1.76074-.88184,1.83431,1.83431,0,0,1,1.41162.45215l.00159.00122-3.25543,5.13489C28.92133,60.561,30.20209,59.21313,30.86053,58.52246Zm10.8728-5.10168a2.00012,2.00012,0,0,0,.305-.91754L43.00012,40h5L48.858,51.15338A2,2,0,0,0,50.85211,53H77.14789A2,2,0,0,0,79.142,51.15338L79.99988,40h5l.96179,12.50323a2.00012,2.00012,0,0,0,.305.91754L112.46844,94.75H15.53156ZM14.00031,98.75h99.99939V107H14.00031Zm0,12.25h99.99939v4H14.00031ZM30.41711,46.16974a1.54629,1.54629,0,0,1-.4812,1.10724C28.42065,48.7674,25.50067,53,16.91467,53A39.91788,39.91788,0,0,1,6.13416,51.28845,1.92106,1.92106,0,0,1,4.79584,50.1214a14.32438,14.32438,0,0,1-.5697-2.3877,57.7502,57.7502,0,0,0,11.32153,1.2536c7.76764,0,12.1933-2.157,14.86945-4.07861Zm92.78711,3.95166a1.92128,1.92128,0,0,1-1.33838,1.16705A39.90959,39.90959,0,0,1,111.08533,53c-8.58441,0-11.50616-4.23273-13.0213-5.723a1.54622,1.54622,0,0,1-.48114-1.10724V44.90887c2.67572,1.92157,7.10059,4.07843,14.86945,4.07843a57.74959,57.74959,0,0,0,11.32153-1.25354A14.32439,14.32439,0,0,1,123.20422,50.1214ZM98.01251,40.09961c-.15875-.1416-.28894-.25073-.42963-.37256V37.85736c.10162-6.33606-9.66351-8.5127-14.30115-9.53473a90.34976,90.34976,0,0,0-30.27759-1.36981c-6.53467.78815-15.65887,1.70691-20.60876,6.59979a5.94015,5.94015,0,0,0-1.97827,4.305v1.86945c-.14069.12183-.27087.231-.42963.37256-2.70081,2.40479-8.24036,7.334-25.95734,3.51215.21484-4.429,1.77112-10.7572,6.96411-18.74847a3.96964,3.96964,0,0,1,1.69116-1.40485A123.46858,123.46858,0,0,1,61.38617,13h5.22772a123.49189,123.49189,0,0,1,48.70068,10.45844,3.96938,3.96938,0,0,1,1.69122,1.40485c5.19312,7.99146,6.74933,14.31982,6.96411,18.74884C106.25287,47.43738,100.71234,42.50439,98.01251,40.09961Z"/><path d="M69,18H59a2,2,0,0,0,0,4H69a2,2,0,0,0,0-4Z"/></svg>