<svg xmlns="http://www.w3.org/2000/svg" width="44" height="45"><path fill="#333" fill-rule="evenodd" d="m43.542 21.892-4.218-1.957a2.309 2.309 0 0 0-1.93-.006L22.96 26.527a2.306 2.306 0 0 1-1.918 0L6.606 19.929a2.309 2.309 0 0 0-1.93.006L.458 21.892a.787.787 0 0 0 .004 1.432l20.58 9.408a2.31 2.31 0 0 0 1.918 0l20.578-9.408a.787.787 0 0 0 .004-1.432zm0 12.06-4.218-1.958a2.309 2.309 0 0 0-1.93-.005L22.96 38.587a2.306 2.306 0 0 1-1.918 0L6.606 31.989a2.309 2.309 0 0 0-1.93.005L.458 33.952a.787.787 0 0 0 .004 1.431l20.58 9.408a2.302 2.302 0 0 0 1.918 0l20.578-9.408a.787.787 0 0 0 .004-1.431zM20.88.247.459 9.727a.787.787 0 0 0 .004 1.431l20.578 9.408a2.31 2.31 0 0 0 1.918 0l20.58-9.408a.787.787 0 0 0 .003-1.432L23.122.246a2.67 2.67 0 0 0-2.242 0z"/></svg>